<?xml version="1.0" encoding="UTF-8" standalone="no"?>
<svg
   xmlns:dc="http://purl.org/dc/elements/1.1/"
   xmlns:cc="http://creativecommons.org/ns#"
   xmlns:rdf="http://www.w3.org/1999/02/22-rdf-syntax-ns#"
   xmlns:svg="http://www.w3.org/2000/svg"
   xmlns="http://www.w3.org/2000/svg"
   xmlns:xlink="http://www.w3.org/1999/xlink"
   id="svg8"
   version="1.1"
   viewBox="0 0 19.05 19.050001"
   height="72"
   width="72">
  <defs
     id="defs2">
    <linearGradient
       id="BWgrad">
      <stop
         offset="0"
         stop-color="#000"
         id="stop352" />
      <stop
         offset="1"
         stop-color="#fff"
         id="stop354" />
    </linearGradient>
    <linearGradient
       gradientUnits="userSpaceOnUse"
       gradientTransform="matrix(0.01199834,0,0,-0.01638913,-77.919273,351.18173)"
       id="grad1"
       x1="4492.4956"
       x2="5626.0678"
       xlink:href="#BWgrad"
       y1="5053.9493"
       y2="4328.4631" />
    <linearGradient
       gradientUnits="userSpaceOnUse"
       gradientTransform="scale(0.7708191,1.2973212)"
       id="grad2"
       x1="3891.9637"
       x2="2279.1652"
       xlink:href="#BWgrad"
       y1="4363.7142"
       y2="-474.68148" />
    <linearGradient
       gradientUnits="userSpaceOnUse"
       gradientTransform="scale(0.9492988,1.0534091)"
       id="grad4"
       x1="8418.4125"
       x2="-27.168189"
       xlink:href="#BWgrad"
       y1="5771.5676"
       y2="5771.5676" />
    <linearGradient
       gradientUnits="userSpaceOnUse"
       gradientTransform="matrix(0.01714216,0,0,-0.01147127,-77.596746,351.4061)"
       id="grad21"
       x1="2987.7651"
       x2="3223.8767"
       y1="4557.5257"
       y2="4802.302">
      <stop
         offset="0"
         stop-color="#470808"
         id="stop360" />
      <stop
         offset=".65"
         stop-color="#700d0d"
         id="stop362" />
      <stop
         offset="1"
         stop-color="#8c1111"
         id="stop364" />
    </linearGradient>
    <linearGradient
       gradientUnits="userSpaceOnUse"
       gradientTransform="matrix(0.02601658,0,0,-0.00755835,-77.919273,351.18173)"
       id="grad24"
       x1="947.23646"
       x2="681.11369"
       y1="8029.8417"
       y2="8586.2801">
      <stop
         offset="0"
         stop-color="#470808"
         id="stop367" />
      <stop
         offset=".5"
         stop-color="#a91414"
         id="stop369" />
      <stop
         offset="1"
         stop-color="#cd1919"
         id="stop371" />
    </linearGradient>
    <linearGradient
       gradientUnits="userSpaceOnUse"
       gradientTransform="matrix(0.00920853,0,0,-0.02135435,-77.919273,351.18173)"
       id="grad41"
       x1="4459.9531"
       x2="4840.2769"
       y1="4260.8185"
       y2="3973.0059">
      <stop
         offset="0"
         stop-color="#cd1919"
         id="stop374" />
      <stop
         offset=".5"
         stop-color="#ca1919"
         id="stop376" />
      <stop
         offset="1"
         stop-color="#8c1111"
         id="stop378" />
    </linearGradient>
    <linearGradient
       gradientTransform="matrix(0.01402292,0,0,-0.01402292,-77.919273,351.18173)"
       gradientUnits="userSpaceOnUse"
       id="cgrad44"
       x1="2441.1"
       x2="2467.28"
       y1="4604"
       y2="4777.91">
      <stop
         offset="0"
         stop-color="#a91414"
         id="stop381" />
      <stop
         offset="1"
         stop-color="#cd1919"
         id="stop383" />
    </linearGradient>
    <linearGradient
       gradientUnits="userSpaceOnUse"
       gradientTransform="matrix(0.01592485,0,0,-0.01234814,-77.919273,351.18173)"
       id="cgrad11"
       x1="2348.8023"
       x2="2254.9425"
       y1="5227.3042"
       y2="5385.3839">
      <stop
         offset="0"
         stop-color="#700d0d"
         id="stop386" />
      <stop
         offset="1"
         stop-color="#ca1919"
         id="stop388" />
    </linearGradient>
    <linearGradient
       gradientUnits="userSpaceOnUse"
       gradientTransform="matrix(0.01549155,0,0,-0.01269352,-77.919273,351.18173)"
       id="cgrad22"
       x1="2260.9581"
       x2="2149.9989"
       y1="4880.7006"
       y2="5045.0846">
      <stop
         offset="0"
         stop-color="#470808"
         id="stop391" />
      <stop
         offset="1"
         stop-color="#a91414"
         id="stop393" />
    </linearGradient>
    <linearGradient
       gradientUnits="userSpaceOnUse"
       gradientTransform="matrix(0.01337497,0,0,-0.01470226,-77.919273,351.18173)"
       id="cgrad4c"
       x1="2559.2539"
       x2="2608.6986"
       y1="4391.2657"
       y2="4554.7078">
      <stop
         offset="0"
         stop-color="#a91414"
         id="stop396" />
      <stop
         offset="1"
         stop-color="#ca1919"
         id="stop398" />
    </linearGradient>
    <linearGradient
       gradientUnits="userSpaceOnUse"
       gradientTransform="matrix(0.01286277,0,0,-0.01528771,-77.919273,351.18173)"
       id="cgrad1c"
       x1="2908.6396"
       x2="2777.6309"
       y1="4222.1814"
       y2="4319.2742">
      <stop
         offset="0"
         stop-color="#700d0d"
         id="stop401" />
      <stop
         offset="1"
         stop-color="#ca1919"
         id="stop403" />
    </linearGradient>
    <linearGradient
       gradientUnits="userSpaceOnUse"
       gradientTransform="matrix(0.03571226,0,0,-0.0055063,-77.919273,351.18173)"
       id="cgrad2c"
       x1="1047.6276"
       x2="973.64574"
       y1="11722.49"
       y2="11774.188">
      <stop
         offset="0"
         stop-color="#700d0d"
         id="stop406" />
      <stop
         offset="1"
         stop-color="#b51616"
         id="stop408" />
    </linearGradient>
    <linearGradient
       gradientUnits="userSpaceOnUse"
       gradientTransform="matrix(0.0175024,0,0,-0.01123516,-77.919273,351.18173)"
       id="cgradxx"
       x1="2138.4027"
       x2="2015.4746"
       y1="5743.8844"
       y2="5888.8295">
      <stop
         offset="0"
         stop-color="#700d0d"
         id="stop411" />
      <stop
         offset="1"
         stop-color="#ca1919"
         id="stop413" />
    </linearGradient>
    <linearGradient
       gradientUnits="userSpaceOnUse"
       gradientTransform="scale(0.93426318,1.0703622)"
       id="grad3"
       x1="8399.5312"
       x2="15715.188"
       xlink:href="#BWgrad"
       y1="4016.3583"
       y2="-2173.8131" />
    <linearGradient
       gradientUnits="userSpaceOnUse"
       gradientTransform="scale(0.78381676,1.2758084)"
       id="grad5"
       x1="10796.563"
       x2="9065.9904"
       xlink:href="#BWgrad"
       y1="4727.9192"
       y2="978.34615" />
    <linearGradient
       gradientUnits="userSpaceOnUse"
       gradientTransform="scale(1.3789919,0.72516744)"
       id="grad6"
       x1="463.32632"
       x2="8506.2141"
       xlink:href="#BWgrad"
       y1="-22.414156"
       y2="8020.4736" />
    <linearGradient
       gradientUnits="userSpaceOnUse"
       gradientTransform="matrix(0.00339917,0,0,-0.00278999,0.03097669,302.58978)"
       id="grad56"
       x1="7514.2174"
       x2="7800.4308"
       y1="4531.8888"
       y2="4825.3176">
      <stop
         offset="0"
         stop-color="#9a1212"
         id="stop419" />
      <stop
         offset=".7"
         stop-color="#da1a1a"
         id="stop421" />
      <stop
         offset="1"
         stop-color="#ce1919"
         id="stop423" />
    </linearGradient>
    <linearGradient
       gradientUnits="userSpaceOnUse"
       gradientTransform="matrix(0.00456053,0,0,-0.00207951,-19.680151,297.51166)"
       id="grad36"
       x1="7624.3417"
       x2="7317.4387"
       y1="5419.6428"
       y2="5838.1469">
      <stop
         offset="0"
         stop-color="#570a0a"
         id="stop426" />
      <stop
         offset=".5"
         stop-color="#ba1616"
         id="stop428" />
      <stop
         offset="1"
         stop-color="#ce1919"
         id="stop430" />
    </linearGradient>
    <linearGradient
       gradientUnits="userSpaceOnUse"
       gradientTransform="matrix(0.00184803,0,0,-0.00513177,-19.680151,297.51166)"
       id="grad35"
       x1="15673.152"
       x2="15151.236"
       y1="887.28294"
       y2="1213.0307">
      <stop
         offset="0"
         stop-color="#570a0a"
         id="stop433" />
      <stop
         offset="1"
         stop-color="#9a1212"
         id="stop435" />
    </linearGradient>
    <linearGradient
       gradientUnits="userSpaceOnUse"
       gradientTransform="matrix(0.00486001,0,0,-0.00195137,-19.680151,297.51166)"
       id="cgrad53"
       x1="6199.0198"
       x2="6168.9086"
       y1="4974.3374"
       y2="5235.3007">
      <stop
         offset="0"
         stop-color="#570a0a"
         id="stop438" />
      <stop
         offset="1"
         stop-color="#bd1717"
         id="stop440" />
    </linearGradient>
    <linearGradient
       gradientUnits="userSpaceOnUse"
       gradientTransform="matrix(0.0031897,0,0,-0.00297321,-19.680151,297.51166)"
       id="cgrad56"
       x1="9062.8395"
       x2="9163.1226"
       y1="3358.9959"
       y2="3604.3694">
      <stop
         offset="0"
         stop-color="#9a1212"
         id="stop443" />
      <stop
         offset="1"
         stop-color="#da1a1a"
         id="stop445" />
    </linearGradient>
    <linearGradient
       gradientUnits="userSpaceOnUse"
       gradientTransform="matrix(0.00316756,0,0,-0.00299399,-19.680151,297.51166)"
       id="cgrad6c"
       x1="9448.0027"
       x2="9379.8698"
       y1="3440.0764"
       y2="3582.02">
      <stop
         offset="0"
         stop-color="#ba1616"
         id="stop448" />
      <stop
         offset="1"
         stop-color="#da1a1a"
         id="stop450" />
    </linearGradient>
    <linearGradient
       gradientUnits="userSpaceOnUse"
       gradientTransform="matrix(0.0029408,0,0,-0.00322486,-19.680151,297.51166)"
       id="cgrad63"
       x1="10244.585"
       x2="10179.157"
       y1="3009.9819"
       y2="3201.6582">
      <stop
         offset="0"
         stop-color="#570a0a"
         id="stop453" />
      <stop
         offset="1"
         stop-color="#bd1717"
         id="stop455" />
    </linearGradient>
    <linearGradient
       gradientUnits="userSpaceOnUse"
       gradientTransform="matrix(0.00268543,0,0,-0.00353152,-19.680151,297.51166)"
       id="cgrad66"
       x1="11144.256"
       x2="10965.109"
       y1="2916.0306"
       y2="2962.9104">
      <stop
         offset="0"
         stop-color="#ba1616"
         id="stop458" />
      <stop
         offset="1"
         stop-color="#da1a1a"
         id="stop460" />
    </linearGradient>
    <radialGradient
       gradientTransform="matrix(0.00307955,0,0,0.00307955,-19.680151,-297.51166)"
       gradientUnits="userSpaceOnUse"
       r="201"
       fy="3310"
       fx="9607"
       cy="3310"
       cx="9607"
       id="rcgrad">
      <stop
         offset="0"
         stop-color="#bd1717"
         stop-opacity="1"
         id="stop463" />
      <stop
         offset="1"
         stop-color="#bd1717"
         stop-opacity="0"
         id="stop465" />
    </radialGradient>
  </defs>
  <metadata
     id="metadata5">
    <rdf:RDF>
      <cc:Work
         rdf:about="">
        <dc:format>image/svg+xml</dc:format>
        <dc:type
           rdf:resource="http://purl.org/dc/dcmitype/StillImage" />
        <dc:title></dc:title>
      </cc:Work>
    </rdf:RDF>
  </metadata>
  <g
     transform="translate(0,-277.94999)"
     id="layer1">
    <path
       id="path514"
       d="m 9.1327086,286.57449 c 0.5527444,2.70812 -2.3551737,8.2633 -1.4017523,10.13957 0.024636,0.0154 0.1355003,0.0277 0.2494438,0.0277 0.200171,0 0.3695465,-0.0616 4.0465329,-1.43508 2.451325,-0.9177 3.889477,-1.47202 3.978784,-1.53361 0.08007,-0.0524 0.181693,-0.15706 0.227887,-0.23405 0.06467,-0.10778 0.329512,-1.07784 1.194867,-4.40376 0.609751,-2.34662 1.090162,-4.12352 1.093241,-4.38836 0,-0.13858 -0.03695,-0.35415 -0.07083,-0.35108 -0.01232,0 -1.468762,0.0861 -2.950027,0.57262 -2.162408,0.82463 -4.117122,1.14695 -6.3681464,1.60605 z"
       style="fill:#570009;stroke-width:0.00307955" />
    <path
       id="path516"
       d="m 2.4187259,281.48875 c -0.043114,0.0647 -0.092387,0.15705 -0.1077843,0.20941 -0.018478,0.0493 -0.3941829,2.0171 -0.8345592,4.36988 -0.60975162,3.23969 -0.80068394,4.3083 -0.78528608,4.40376 0.0123178,0.0708 0.0554318,0.1971 0.095466,0.2864 0.0708297,0.14474 0.36646708,0.4065 3.36903178,2.99333 1.807698,1.55825 3.3443953,2.86091 3.4090659,2.89786 0.064671,0.0339 0.1201026,0.0523 0.1231821,0.04 0.00924,-0.0339 0.5943541,-2.6053 1.3642425,-6.01436 0.3572281,-1.58289 0.6775018,-2.99333 0.7113768,-3.13499 0.030795,-0.14166 0.108625,-0.6552 0.108625,-0.66752 0,-0.0154 -1.3921435,-1.26047 -3.3753762,-2.84644 -1.9863121,-1.58905 -3.7246505,-2.73588 -3.7523665,-2.76051 -0.046193,-0.037 -0.2547881,0.11536 -0.3256174,0.22316 z"
       style="fill:#9a0000;stroke-width:0.00307955" />
    <path
       id="path518"
       d="m 6.7147032,280.0044 c -3.1380651,0.91771 -3.9479877,1.16715 -4.0496129,1.23798 -0.06775,0.0493 -0.1262618,0.10471 -0.1262618,0.12626 0,0.0185 1.6383225,1.34577 3.6400324,2.94714 l 3.6431121,2.91325 3.332077,-1.09324 c 1.835414,-0.60051 3.769374,-1.2349 4.302136,-1.41043 0.532763,-0.17554 0.97314,-0.33259 0.979299,-0.35107 0.03695,-0.11394 -0.271001,-0.35415 -3.627715,-2.81779 -1.903164,-1.39504 -3.535327,-2.57451 -3.627714,-2.62378 -0.311035,-0.15706 -0.129341,-0.20017 -4.4653528,1.07168 z"
       style="fill:#ce0000;stroke-width:0.00307955" />
    <g
       transform="matrix(0.00307955,0,0,-0.00307955,-19.680151,297.51166)"
       id="g550"
       style="fill:white">
      <path
         id="path538"
         d="m 9671,5805 c -106,-30 -158,-86 -145,-154 17,-81 158,-183 310,-221 97,-25 248,-27 324,-4 67,20 130,78 130,119 0,96 -134,202 -315,250 -88,24 -238,28 -304,10 z" />
      <path
         id="path540"
         d="m 8075,5333 c -85,-19 -147,-64 -165,-119 -32,-97 110,-224 309,-275 98,-26 245,-28 324,-5 61,18 123,64 138,104 37,97 -109,232 -307,282 -73,19 -241,26 -299,13 z" />
      <path
         id="path542"
         d="m 10405,5293 c -143,-32 -202,-102 -165,-197 24,-63 160,-155 280,-190 245,-71 480,-11 480,122 0,71 -109,174 -234,221 -110,41 -281,62 -361,44 z" />
      <path
         id="path544"
         d="m 8797,4800 c -27,-5 -74,-21 -104,-35 -156,-77 -108,-229 102,-330 95,-46 191,-67 305,-68 120,-1 197,22 252,73 33,32 38,43 38,81 0,94 -91,182 -249,239 -118,43 -239,57 -344,40 z" />
      <path
         id="path546"
         d="m 11130,4760 c -117,-21 -180,-71 -180,-141 0,-50 17,-84 67,-130 110,-105 299,-167 472,-156 109,7 156,23 203,68 31,29 38,43 38,73 0,107 -125,211 -319,265 -84,23 -217,33 -281,21 z" />
      <path
         id="path548"
         d="m 9463,4236 c -96,-30 -143,-80 -143,-151 0,-50 20,-84 81,-139 107,-96 244,-141 429,-141 109,0 132,3 176,23 138,62 151,170 32,277 -103,92 -262,145 -432,144 -56,0 -120,-6 -143,-13 z" />
    </g>
    <g
       transform="matrix(0.00307955,0,0,-0.00307955,-19.680151,297.51166)"
       id="g558"
       style="fill:white">
      <path
         id="path552"
         d="m 11842,3682 c -253,-90 -468,-476 -346,-622 102,-121 369,24 499,272 123,234 42,419 -153,350 z" />
      <path
         id="path554"
         d="m 10785,2491 c -150,-71 -287,-238 -330,-402 -20,-72 -18,-116 4,-166 25,-55 67,-77 135,-71 147,12 317,159 407,353 59,126 49,264 -22,300 -47,25 -126,19 -194,-14 z" />
      <path
         id="path556"
         d="m 9760,1314 c -199,-99 -368,-367 -330,-525 22,-92 97,-125 206,-91 233,73 453,404 380,575 -22,53 -50,71 -119,75 -56,3 -70,0 -137,-34 z" />
    </g>
    <g
       transform="matrix(0.00307955,0,0,-0.00307955,-19.680151,297.51166)"
       id="g570"
       style="fill:white">
      <path
         id="path560"
         d="m 7830,3088 c -34,-18 -52,-36 -75,-78 -59,-109 -43,-312 36,-460 90,-169 243,-253 340,-187 76,51 103,126 97,272 -7,155 -61,286 -161,385 -81,82 -164,106 -237,68 z" />
      <path
         id="path562"
         d="m 7006,2780 c -77,-23 -126,-121 -126,-248 0,-98 19,-175 70,-277 85,-175 231,-259 331,-192 112,73 119,327 16,522 -47,87 -133,170 -198,189 -59,18 -53,17 -93,6 z" />
      <path
         id="path564"
         d="m 8335,1630 c -30,-12 -72,-60 -90,-104 -78,-187 48,-531 227,-620 135,-67 240,-1 268,169 33,201 -103,483 -265,551 -37,15 -108,18 -140,4 z" />
      <path
         id="path566"
         d="m 8725,3428 c -76,-41 -115,-116 -122,-234 -11,-155 48,-320 153,-434 67,-72 121,-100 195,-100 73,0 118,31 155,106 118,241 -84,675 -313,674 -26,0 -57,-6 -68,-12 z" />
      <path
         id="path568"
         d="m 7305,4528 c -47,-41 -72,-91 -85,-171 -25,-159 42,-361 159,-478 115,-115 239,-111 304,9 84,155 35,421 -107,579 -58,64 -115,93 -184,93 -43,0 -57,-5 -87,-32 z" />
    </g>
  </g>
</svg>
